<svg width="25" height="26" viewBox="0 0 25 26" fill="none" xmlns="http://www.w3.org/2000/svg">
<path d="M20.5972 0.900391C21.1482 0.900391 21.6636 1.19259 21.9946 1.67188L21.9956 1.67285L24.4546 5.31836L24.5591 5.47461H24.5073C24.511 5.50609 24.511 5.53949 24.4995 5.57422L24.5005 23.4199C24.5005 24.3186 23.8045 25.0994 22.9136 25.0996H1.89795C1.00806 25.0993 0.312012 24.3501 0.312012 23.4199V5.55664C0.312152 5.4694 0.352384 5.38736 0.378418 5.33203L0.381348 5.3252L0.38623 5.31934L2.84424 1.67383C3.14913 1.18983 3.69527 0.90045 4.24268 0.900391H20.5972ZM1.0835 23.4199C1.0835 23.8892 1.44717 24.292 1.89893 24.292H22.9419C23.3692 24.2919 23.7573 23.9151 23.7573 23.4199L23.7563 5.96094H15.9507L15.9517 11.0557C15.9517 11.3016 15.8203 11.5441 15.6235 11.6836L15.6157 11.6895L15.6069 11.6934C15.3917 11.7913 15.1547 11.8324 14.9155 11.6885V11.6895L12.4204 10.2598L9.92529 11.6895L9.92432 11.6885C9.82127 11.7585 9.69111 11.7939 9.58936 11.7939C9.4592 11.7939 9.32343 11.7589 9.21729 11.6836C9.02227 11.5456 8.88916 11.3347 8.88916 11.0557V5.96094H1.0835V23.4199ZM9.66162 5.62891V10.9746L12.3696 9.38965L12.4194 9.36035L12.4702 9.38867L15.1792 10.9453V5.59766L14.144 1.70801H10.7231L9.66162 5.62891ZM15.8716 5.15332H23.4116L21.3745 2.12207C21.1905 1.87095 20.904 1.70801 20.5972 1.70801H14.9517L15.8716 5.15332ZM4.24268 1.70801C3.93088 1.70813 3.64959 1.84469 3.46924 2.11816L3.46826 2.11914L1.42822 5.15332H8.99756L9.91748 1.70801H4.24268Z" fill="#DBA362" stroke="#DBA362" stroke-width="0.2"/>
<path d="M14.8076 5.15352V5.96114H10.0332V5.15352H14.8076Z" fill="#DBA362" stroke="#DBA362" stroke-width="0.2"/>
</svg>
