<svg width="26" height="24" viewBox="0 0 26 24" fill="none" xmlns="http://www.w3.org/2000/svg">
<path d="M21.2266 0.100342C21.7253 0.100342 22.1975 0.318433 22.5391 0.688232L22.6777 0.855225L22.6787 0.856201L25.2393 4.43042L25.2441 4.43726L25.248 4.44409C25.262 4.47188 25.2825 4.51206 25.293 4.55444C25.3023 4.59246 25.3032 4.63636 25.2881 4.68237V22.1794C25.2881 23.0672 24.5596 23.8287 23.6396 23.8289H1.74902C0.829977 23.8289 0.100586 23.0983 0.100586 22.1794V4.66772C0.100586 4.57998 0.143036 4.49786 0.169922 4.44409L0.173828 4.43726L0.178711 4.43042L2.7373 0.859131C3.05506 0.382613 3.62437 0.100342 4.19141 0.100342H21.2266ZM0.895508 22.1794C0.895508 22.6327 1.27026 23.033 1.74902 23.033H23.6689C24.1222 23.033 24.5225 22.6582 24.5225 22.1794V5.06519H16.3828V10.0583C16.3828 10.3029 16.245 10.5416 16.041 10.6775L16.0332 10.6824L16.0244 10.6863C15.8011 10.7819 15.5569 10.8218 15.3105 10.6814V10.6804L12.709 9.27808L10.1055 10.6824C9.99915 10.7505 9.86477 10.7839 9.76074 10.7839C9.62693 10.7839 9.48643 10.7506 9.37695 10.6775C9.17518 10.5431 9.03521 10.3352 9.03516 10.0583V5.06519H0.895508V22.1794ZM9.83105 4.74097V9.98022L12.6611 8.42163L12.709 8.39526L12.7568 8.42163L15.5869 9.95093V4.70972L14.5098 0.895264H10.9385L9.83105 4.74097ZM16.2988 4.26929H24.1592L22.0391 1.30054V1.29956C21.8476 1.05588 21.5486 0.895264 21.2266 0.895264H15.3438L16.2988 4.26929ZM4.19141 0.895264C3.86251 0.895264 3.56755 1.03166 3.37988 1.29956L3.37891 1.30054L1.25879 4.26929H9.14941L10.1045 0.895264H4.19141Z" fill="#DBA362" stroke="#DBA362" stroke-width="0.2"/>
<path d="M15.1919 4.27002V5.06494H10.2271V4.27002H15.1919Z" fill="#DBA362" stroke="#DBA362" stroke-width="0.2"/>
</svg>
