<svg width="24" height="24" viewBox="0 0 24 24" fill="none" xmlns="http://www.w3.org/2000/svg">
<path d="M12 1.25C13.9568 1.25 15.794 1.77337 17.376 2.68848C17.7342 2.89587 17.8564 3.3545 17.6494 3.71289C17.442 4.07144 16.9826 4.19471 16.624 3.9873C15.2643 3.20078 13.686 2.75 12 2.75C6.89137 2.75 2.75 6.89137 2.75 12C2.75 17.1086 6.89137 21.25 12 21.25C17.1086 21.25 21.25 17.1086 21.25 12C21.25 10.8597 21.0441 9.76928 20.668 8.7627C20.523 8.37486 20.7198 7.94303 21.1074 7.79785C21.4954 7.65287 21.9282 7.84933 22.0732 8.2373C22.5112 9.40934 22.75 10.6777 22.75 12C22.75 17.9371 17.9371 22.75 12 22.75C6.06294 22.75 1.25 17.9371 1.25 12C1.25 6.06294 6.06294 1.25 12 1.25ZM20.4424 3.49805C20.7195 3.19021 21.1941 3.1653 21.502 3.44238C21.8098 3.71948 21.8347 4.19408 21.5576 4.50195L13.8203 13.0986C12.8458 14.1814 11.1952 14.3173 10.0576 13.4072L6.53125 10.5859C6.20782 10.3272 6.15532 9.85469 6.41406 9.53125C6.67281 9.20781 7.1453 9.15532 7.46875 9.41406L10.9951 12.2354C11.5122 12.649 12.2621 12.5879 12.7051 12.0957L20.4424 3.49805Z" fill="#0CAF60"/>
</svg>
