<svg width="24" height="24" viewBox="0 0 24 24" fill="none" xmlns="http://www.w3.org/2000/svg">
<path d="M6 5.25C6.41421 5.25 6.75 5.58579 6.75 6V16.9902C6.8156 16.9409 6.8777 16.8843 6.93457 16.8203L8.43945 15.127C8.7146 14.8174 9.18846 14.7894 9.49805 15.0645C9.80759 15.3396 9.83562 15.8135 9.56055 16.123L8.05566 17.8164C7.54413 18.3919 6.85103 18.6981 6.14648 18.7354C6.09919 18.7447 6.05004 18.75 6 18.75C5.94996 18.75 5.90082 18.7447 5.85352 18.7354C5.14898 18.6981 4.45587 18.3919 3.94434 17.8164L2.43945 16.123C2.16439 15.8135 2.19241 15.3396 2.50195 15.0645C2.81154 14.7894 3.28539 14.8174 3.56055 15.127L5.06543 16.8203C5.1223 16.8843 5.18441 16.9409 5.25 16.9902V6C5.25 5.58579 5.58579 5.25 6 5.25ZM15 17.25C15.4142 17.25 15.75 17.5858 15.75 18C15.75 18.4142 15.4142 18.75 15 18.75H12C11.5858 18.75 11.25 18.4142 11.25 18C11.25 17.5858 11.5858 17.25 12 17.25H15ZM18 11.25C18.4142 11.25 18.75 11.5858 18.75 12C18.75 12.4142 18.4142 12.75 18 12.75H12C11.5858 12.75 11.25 12.4142 11.25 12C11.25 11.5858 11.5858 11.25 12 11.25H18ZM21 5.25C21.4142 5.25 21.75 5.58579 21.75 6C21.75 6.41421 21.4142 6.75 21 6.75H12C11.5858 6.75 11.25 6.41421 11.25 6C11.25 5.58579 11.5858 5.25 12 5.25H21Z" fill="#28303F"/>
</svg>
