<svg width="24" height="24" viewBox="0 0 24 24" fill="none" xmlns="http://www.w3.org/2000/svg">
<path d="M2 7H5M12 8H18M12 12H18M12 16H15M11 21H19C20.6569 21 22 19.6569 22 18V6C22 4.34315 20.6569 3 19 3H11C9.34315 3 8 4.34315 8 6V18C8 19.6569 9.34315 21 11 21ZM3.5 21L4.3282 19.7577C4.76625 19.1006 5 18.3286 5 17.5389V4.5C5 3.67157 4.32843 3 3.5 3C2.67157 3 2 3.67157 2 4.5V17.5389C2 18.3286 2.23375 19.1006 2.6718 19.7577L3.5 21Z" stroke="#28303F" stroke-width="1.5" stroke-linecap="round" stroke-linejoin="round"/>
</svg>
