<svg width="24" height="24" viewBox="0 0 24 24" fill="none" xmlns="http://www.w3.org/2000/svg">
<path d="M17 2.25C19.6234 2.25 21.75 4.37665 21.75 7V8.0625C21.75 8.47671 21.4142 8.8125 21 8.8125C20.5858 8.8125 20.25 8.47671 20.25 8.0625V7C20.25 5.20507 18.7949 3.75 17 3.75H7C5.20507 3.75 3.75 5.20507 3.75 7V17C3.75 18.7949 5.20507 20.25 7 20.25H8.625C9.03921 20.25 9.375 20.5858 9.375 21C9.375 21.4142 9.03921 21.75 8.625 21.75H7C4.37665 21.75 2.25 19.6234 2.25 17V7C2.25 4.37665 4.37665 2.25 7 2.25H17ZM15 8.25C18.7279 8.25 21.75 11.2721 21.75 15C21.75 16.5938 21.1972 18.0581 20.2734 19.2129L21.5303 20.4697C21.8232 20.7626 21.8232 21.2374 21.5303 21.5303C21.2374 21.8232 20.7626 21.8232 20.4697 21.5303L19.2129 20.2734C18.0581 21.1972 16.5938 21.75 15 21.75C11.2721 21.75 8.25 18.7279 8.25 15C8.25 11.2721 11.2721 8.25 15 8.25ZM15 9.75C12.1005 9.75 9.75 12.1005 9.75 15C9.75 17.8995 12.1005 20.25 15 20.25C17.8995 20.25 20.25 17.8995 20.25 15C20.25 12.1005 17.8995 9.75 15 9.75Z" fill="#28303F"/>
</svg>
