<svg width="18" height="23" viewBox="0 0 18 23" fill="none" xmlns="http://www.w3.org/2000/svg">
<path d="M13.5833 5.41667H12.8333C12.8333 7.57978 11.0798 9.33333 8.91667 9.33333V10.0833V10.8333C11.9082 10.8333 14.3333 8.40821 14.3333 5.41667H13.5833ZM8.91667 10.0833V9.33333C6.75355 9.33333 5 7.57978 5 5.41667H4.25H3.5C3.5 8.40821 5.92512 10.8333 8.91667 10.8333V10.0833ZM4.25 5.41667H5C5 3.25355 6.75355 1.5 8.91667 1.5V0.75V0C5.92512 0 3.5 2.42512 3.5 5.41667H4.25ZM8.91667 0.75V1.5C11.0798 1.5 12.8333 3.25355 12.8333 5.41667H13.5833H14.3333C14.3333 2.42512 11.9082 0 8.91667 0V0.75ZM17.0833 17.6667H16.3333C16.3333 18.3571 15.7541 19.1841 14.356 19.8832C13.0027 20.5598 11.0806 21 8.91667 21V21.75V22.5C11.263 22.5 13.4243 22.0261 15.0268 21.2248C16.5844 20.446 17.8333 19.2314 17.8333 17.6667H17.0833ZM8.91667 21.75V21C6.75269 21 4.83066 20.5598 3.47737 19.8832C2.07922 19.1841 1.5 18.3571 1.5 17.6667H0.75H0C0 19.2314 1.24895 20.446 2.80655 21.2248C4.40902 22.0261 6.57032 22.5 8.91667 22.5V21.75ZM0.75 17.6667H1.5C1.5 16.9762 2.07922 16.1492 3.47737 15.4501C4.83066 14.7735 6.75269 14.3333 8.91667 14.3333V13.5833V12.8333C6.57032 12.8333 4.40902 13.3073 2.80655 14.1085C1.24895 14.8873 0 16.102 0 17.6667H0.75ZM8.91667 13.5833V14.3333C11.0806 14.3333 13.0027 14.7735 14.356 15.4501C15.7541 16.1492 16.3333 16.9762 16.3333 17.6667H17.0833H17.8333C17.8333 16.102 16.5844 14.8873 15.0268 14.1085C13.4243 13.3073 11.263 12.8333 8.91667 12.8333V13.5833Z" fill="#817AF3" fill-opacity="0.6"/>
</svg>
