<svg width="26" height="26" viewBox="0 0 26 26" fill="none" xmlns="http://www.w3.org/2000/svg">
<path d="M20.8706 22.0586C19.6785 18.8701 16.6044 16.6 13 16.6C9.39565 16.6 6.32152 18.8701 5.1294 22.0586M20.8706 22.0586C23.4006 19.8585 25 16.616 25 13C25 6.37258 19.6274 1 13 1C6.37258 1 1 6.37258 1 13C1 16.616 2.59942 19.8585 5.1294 22.0586M20.8706 22.0586C18.7637 23.8908 16.0114 25 13 25C9.98862 25 7.23633 23.8908 5.1294 22.0586" stroke="#28303F" stroke-width="1.5" stroke-linejoin="round"/>
<circle cx="3.6" cy="3.6" r="3.6" transform="matrix(1 0 0 -1 9.40039 13.0001)" stroke="#28303F" stroke-width="1.5" stroke-linejoin="round"/>
</svg>
