<svg width="688" height="661" viewBox="0 0 688 661" fill="none" xmlns="http://www.w3.org/2000/svg">
<path d="M357.549 661C540.051 661 687.999 513.03 687.999 330.5C687.999 147.97 540.051 0 357.549 0C175.046 0 27.0977 147.97 27.0977 330.5C27.0977 513.03 175.046 661 357.549 661Z" fill="url(#paint0_linear_2453_8726)"/>
<g opacity="0.4">
<path d="M397.889 189.558H485.075V115.275L397.889 115.275V189.558Z" fill="#CBAC8B"/>
<path d="M441.482 189.558H528.667V115.275L441.482 115.275V189.558Z" fill="#DABEA0"/>
<path d="M397.942 170.723H411.754L410.539 166.701L411.754 163.836H397.942V170.723Z" fill="#DABEA0"/>
<path d="M441.482 138.265H455.299L454.079 134.25L455.299 131.379H441.482V138.265Z" fill="#CBAC8B"/>
<path d="M441.482 131.378H427.669L428.885 135.394L427.669 138.265H441.482V131.378Z" fill="#DABEA0"/>
<path d="M528.667 171.52H514.855L516.07 175.535L514.855 178.406H528.667V171.52Z" fill="#CBAC8B"/>
<path d="M522.961 120.314H497.869V130.398H522.961V120.314Z" fill="white"/>
<path d="M243.92 189.558H331.106V115.275L243.92 115.275V189.558Z" fill="#CBAC8B"/>
<path d="M287.518 189.558H374.704V115.275L287.518 115.275V189.558Z" fill="#DABEA0"/>
<path d="M243.973 170.723H257.791L256.571 166.701L257.791 163.836H243.973V170.723Z" fill="#DABEA0"/>
<path d="M287.513 138.265H301.331L300.115 134.25L301.331 131.379H287.513V138.265Z" fill="#CBAC8B"/>
<path d="M287.513 131.378H273.701L274.916 135.394L273.701 138.265H287.513V131.378Z" fill="#DABEA0"/>
<path d="M374.704 171.52H360.886L362.102 175.535L360.886 178.406H374.704V171.52Z" fill="#CBAC8B"/>
<path d="M368.986 120.314H343.9V130.398H368.986V120.314Z" fill="white"/>
<path d="M221.062 189.558H187.528V602.833H221.062V189.558Z" fill="#CCA67E"/>
<path d="M583.052 189.558H555.177V602.833H583.052V189.558Z" fill="#CCA67E"/>
<path d="M583.052 189.558H221.062V200.311H583.052V189.558Z" fill="#DCC2A6"/>
<path d="M583.052 385.439H221.062V396.192H583.052V385.439Z" fill="#DCC2A6"/>
<path d="M583.052 549.731H221.062V560.484H583.052V549.731Z" fill="#DCC2A6"/>
<path d="M403.928 385.439H494.062V308.639H403.928V385.439Z" fill="#C2A280"/>
<path d="M448.998 385.439H539.133V308.639H448.998V385.439Z" fill="#DABEA0"/>
<path d="M448.998 332.408H463.281L462.023 328.254L463.281 325.289H448.998V332.408Z" fill="#C2A280"/>
<path d="M448.998 325.289H434.716L435.973 329.443L434.716 332.408H448.998V325.289Z" fill="#DABEA0"/>
<path d="M539.138 366.787H524.85L526.113 370.941L524.85 373.911H539.138V366.787Z" fill="#C2A280"/>
<path d="M533.228 313.851H507.291V324.278H533.228V313.851Z" fill="white"/>
<path d="M288.258 385.439H378.392V308.639H288.258V385.439Z" fill="#CBAC8B"/>
<path d="M333.322 385.439H423.456V308.639H333.322V385.439Z" fill="#DABEA0"/>
<path d="M288.306 365.963H302.588L301.33 361.815L302.588 358.844H288.306V365.963Z" fill="#DABEA0"/>
<path d="M333.322 332.408H347.604L346.347 328.254L347.604 325.289H333.322V332.408Z" fill="#CBAC8B"/>
<path d="M333.322 325.289H319.039L320.297 329.443L319.039 332.408H333.322V325.289Z" fill="#DABEA0"/>
<path d="M423.461 366.787H409.179L410.437 370.941L409.179 373.911H423.461V366.787Z" fill="#CBAC8B"/>
<path d="M423.461 324.278H409.179L410.437 328.432L409.179 331.397H423.461V324.278Z" fill="#CBAC8B"/>
<path d="M384.697 360.221H342.422V377.214H384.697V360.221Z" fill="white"/>
<path d="M403.928 549.482H481.835V483.103H403.928V549.482Z" fill="#CBAC8B"/>
<path d="M442.88 549.482H520.787V483.103H442.88V549.482Z" fill="#DABEA0"/>
<path d="M442.878 503.649H455.223L454.136 500.059L455.223 497.492H442.878V503.649Z" fill="#CBAC8B"/>
<path d="M442.879 497.492H430.534L431.627 501.082L430.534 503.649H442.879V497.492Z" fill="#B2916D"/>
<path d="M520.787 533.363H508.447L509.535 536.953L508.447 539.513H520.787V533.363Z" fill="#DABEA0"/>
<path d="M515.691 487.606H493.271V496.618H515.691V487.606Z" fill="white"/>
<path d="M255.966 549.482H346.1V472.682H255.966V549.482Z" fill="#CBAC8B"/>
<path d="M301.036 549.482H391.171V472.682H301.036V549.482Z" fill="#DABEA0"/>
<path d="M256.019 530.006H270.301L269.044 525.852L270.301 522.887H256.019V530.006Z" fill="#B2916D"/>
<path d="M301.036 496.451H315.319L314.061 492.297L315.319 489.333H301.036V496.451Z" fill="#CBAC8B"/>
<path d="M301.035 489.332H286.752L288.01 493.486L286.752 496.451H301.035V489.332Z" fill="#B2916D"/>
<path d="M281.336 308.64H350.244V249.929H281.336V308.64Z" fill="#CBAC8B"/>
<path d="M315.79 308.64H384.699V249.929H315.79V308.64Z" fill="#DABEA0"/>
<path d="M281.378 293.401H292.291L291.333 290.226L292.291 287.96H281.378V293.401Z" fill="#DABEA0"/>
<path d="M315.789 268.099H326.715L325.752 264.925L326.715 262.66H315.789V268.099Z" fill="#CBAC8B"/>
<path d="M315.789 262.657H304.874L305.832 265.833L304.874 268.098H315.789V262.657Z" fill="#DABEA0"/>
<path d="M384.704 294.38H373.778L374.741 297.554L373.778 299.819H384.704V294.38Z" fill="#CBAC8B"/>
<path d="M380.184 253.912H360.356V261.883H380.184V253.912Z" fill="white"/>
<path d="M404.458 308.64H473.366V249.929H404.458V308.64Z" fill="#CBAC8B"/>
<path d="M438.907 308.64H507.816V249.929H438.907V308.64Z" fill="#DABEA0"/>
<path d="M404.495 293.749H415.421L414.458 290.573L415.421 288.308H404.495V293.749Z" fill="#DABEA0"/>
<path d="M438.911 268.099H449.827L448.869 264.925L449.827 262.66H438.911V268.099Z" fill="#CBAC8B"/>
<path d="M438.913 262.657H427.987L428.95 265.833L427.987 268.098H438.913V262.657Z" fill="#DABEA0"/>
<path d="M507.826 294.38H496.9L497.864 297.554L496.9 299.819H507.826V294.38Z" fill="#CBAC8B"/>
<path d="M503.308 253.912H483.48V261.883H503.308V253.912Z" fill="white"/>
<path d="M357.127 428.143H304.9V472.644H357.127V428.143Z" fill="#CBAC8B"/>
<path d="M331.014 428.143H278.787V472.644H331.014V428.143Z" fill="#DABEA0"/>
<path d="M357.101 461.363H348.825L349.552 458.956L348.825 457.236H357.101V461.363Z" fill="#B2916D"/>
<path d="M331.014 441.916H322.738L323.466 439.509L322.738 437.789H331.014V441.916Z" fill="#CBAC8B"/>
<path d="M331.015 437.79H339.291L338.562 440.195L339.291 441.916H331.015V437.79Z" fill="#B2916D"/>
<path d="M278.787 461.835H287.063L286.33 464.242L287.063 465.962H278.787V461.835Z" fill="#CBAC8B"/>
<path d="M282.202 437.204H297.235V431.163H282.202V437.204Z" fill="white"/>
</g>
<path d="M503.969 580.382C503.797 578.189 503.342 576.027 502.615 573.951C502.482 573.569 502.339 573.195 502.19 572.828C502.081 572.562 501.965 572.295 501.848 572.029C501.73 571.762 501.57 571.436 501.425 571.149C501.28 570.863 501.101 570.522 500.927 570.216C500.11 568.76 499.116 567.41 497.967 566.197C497.568 565.788 497.161 565.398 496.739 565.031C496.407 564.747 496.073 564.498 495.72 564.232C495.228 563.868 494.714 563.534 494.182 563.232C493.985 563.123 493.782 563.015 493.588 562.911C491.914 562.048 490.081 561.536 488.202 561.408C487.917 561.389 487.629 561.381 487.341 561.381H479.559C470.322 561.381 462.832 570.86 462.832 582.552C462.832 594.243 470.322 603.722 479.559 603.722H487.341C487.629 603.722 487.917 603.722 488.202 603.696C490.081 603.567 491.914 603.055 493.588 602.19C493.787 602.088 493.987 601.98 494.182 601.868C494.714 601.567 495.227 601.234 495.72 600.872C496.067 600.605 496.407 600.352 496.739 600.072C497.161 599.704 497.573 599.316 497.967 598.903C499.116 597.691 500.11 596.341 500.927 594.884C501.1 594.578 501.266 594.267 501.425 593.951C501.57 593.662 501.713 593.37 501.848 593.073C501.982 592.776 502.081 592.54 502.19 592.273C502.341 591.906 502.483 591.531 502.615 591.15C503.342 589.074 503.797 586.912 503.969 584.718C504.026 584.008 504.054 583.286 504.054 582.553C504.054 581.82 504.026 581.096 503.969 580.382Z" fill="#343434"/>
<path d="M339.776 383.568H335.855C336.01 383.215 336.028 382.817 335.904 382.452C335.781 382.087 335.526 381.782 335.189 381.596C334.807 381.488 334.399 381.534 334.052 381.725C333.705 381.916 333.447 382.236 333.334 382.616C333.211 382.917 333.165 383.245 333.201 383.568H329.364C329.297 383.568 329.23 383.583 329.169 383.612C329.108 383.641 329.054 383.683 329.011 383.734L327.745 385.248C327.685 385.319 327.646 385.405 327.632 385.497C327.618 385.589 327.631 385.683 327.668 385.768C327.704 385.852 327.763 385.924 327.839 385.974C327.915 386.025 328.005 386.052 328.096 386.052H338.504C338.571 386.051 338.637 386.036 338.698 386.007C338.758 385.978 338.812 385.937 338.856 385.885L340.121 384.369C340.183 384.298 340.222 384.212 340.236 384.12C340.25 384.027 340.238 383.933 340.2 383.848C340.164 383.765 340.105 383.694 340.03 383.645C339.955 383.595 339.867 383.568 339.776 383.568ZM334.989 383.301C334.929 383.4 334.834 383.471 334.722 383.5C334.611 383.529 334.493 383.513 334.393 383.456C334.293 383.396 334.218 383.301 334.183 383.189C334.149 383.078 334.157 382.957 334.207 382.851C334.253 382.746 334.339 382.663 334.446 382.62C334.552 382.577 334.672 382.577 334.778 382.62C334.837 382.652 334.889 382.695 334.932 382.746C334.974 382.798 335.006 382.858 335.025 382.922C335.064 383.052 335.051 383.193 334.989 383.315V383.301Z" fill="#FFA412"/>
<path d="M265.373 273.737L252.744 283.962C252.152 284.919 253.421 284.97 252.866 286.149C247.736 297.032 251.178 308.66 255.522 307.494C258.308 306.741 259.096 311.654 259.096 311.654L286.165 289.012C286.165 289.012 276.222 267.754 265.373 273.737Z" fill="#343434"/>
<path d="M274.799 594.387L269.049 596.6C269.049 596.6 244.076 560.812 241.002 529.336C240.392 523.961 240.67 518.522 241.824 513.237C241.824 513.237 241.58 511.798 241.158 509.25C240.961 508.062 240.717 506.631 240.44 504.985C239.628 500.18 238.51 493.602 237.234 486.114C234.296 468.88 230.49 446.851 227.531 430.642L229.087 430.127L245.849 424.542L249.314 413.172L261.794 409.776C261.794 409.776 264.584 415.404 267.077 442.036C267.537 445.519 267.954 449.379 268.267 453.559C269.416 469.104 269.018 484.724 267.08 500.189C266.507 504.814 265.776 509.585 264.888 514.502C264.223 519.182 264.063 523.92 264.411 528.635C265.657 554.388 274.799 594.387 274.799 594.387Z" fill="#6877DD"/>
<path d="M268.255 453.562L241.152 509.239C240.955 508.052 240.711 506.62 240.434 504.975C239.623 500.169 238.505 493.591 237.228 486.103C234.29 468.869 230.485 446.84 227.525 430.631L229.082 430.116L245.844 424.531L249.309 413.161L261.788 409.765C261.788 409.765 264.579 415.393 267.072 442.025C267.523 445.535 267.94 449.387 268.255 453.562Z" fill="#5666CF"/>
<path d="M256.332 416.928L255.704 411.37C245.193 414.254 217.107 403.309 217.107 403.309C217.107 403.309 206.921 412.557 208.261 434.727C208.912 445.551 210.105 491.54 211.349 505.143C211.801 510.073 212.195 513.581 212.355 514.986C212.383 515.408 212.275 515.828 212.049 516.185C210.237 519.378 208.7 522.72 207.453 526.173C195.232 559.819 209.336 601.257 209.336 601.257L212.995 599.732C212.995 599.732 221.019 553.622 227.54 533.246C228.32 530.548 229.372 527.937 230.681 525.452C233.516 520.725 236.144 512.999 238.534 503.81C243.05 486.439 246.684 463.841 249.101 446.398C249.428 446.435 256.332 416.928 256.332 416.928Z" fill="#6877DD"/>
<path d="M339.147 409.827C336.882 411.895 330.879 404.792 330.052 403.848C330.031 403.8 330.002 403.754 329.967 403.715L331.781 398.455C331.781 398.455 339.655 398.139 340.959 399.487C342.264 400.834 341.626 407.617 339.147 409.827Z" fill="#ED985F"/>
<path d="M331.793 398.455L331.015 403.895C331.015 403.895 330.665 403.895 330.056 403.85C328.142 403.716 323.487 403.45 318.221 402.861C310.303 402.061 300.899 400.613 297.161 398.23C291.456 394.632 282.119 383.617 276.017 372.603C275.855 372.346 275.709 372.079 275.581 371.803C272.404 365.958 270.187 360.16 270.012 355.529C269.875 353.047 270.124 350.559 270.752 348.154C271.38 345.748 272.473 343.488 273.97 341.502C274.136 341.216 274.343 340.956 274.584 340.731C275.723 339.271 277.124 338.036 278.715 337.089C279.753 336.641 280.891 337.181 282.066 338.483V338.528C283.265 339.917 284.275 341.46 285.067 343.116C285.111 343.159 285.154 343.204 285.154 343.25C285.373 343.649 285.59 344.105 285.85 344.59C285.925 344.685 285.984 344.792 286.023 344.906C286.502 345.938 286.981 347.017 287.46 348.14C292.812 360.2 298.511 378.444 303.255 383.884C305.299 386.221 314.666 390.814 322.094 394.225C327.442 396.656 331.793 398.455 331.793 398.455Z" fill="#ED985F"/>
<path d="M276.414 349.496C272.61 351.26 268.496 352.257 264.307 352.428C246.235 353.451 242.132 337.083 241.388 326.218C243.374 325.51 245.489 325.238 247.59 325.419C248.87 325.493 250.209 325.628 251.311 325.769C253.523 324.57 257.494 318.781 259.79 309.084L260.568 309.456L273.606 315.791C273.606 315.791 272.223 320.176 271.2 324.367C270.4 327.652 269.83 330.822 270.308 331.713C271.346 332.144 271.952 332.415 271.952 332.415C271.952 332.419 271.952 332.424 271.952 332.428C273.966 337.967 275.46 343.68 276.414 349.496Z" fill="#FFB27D"/>
<path d="M280.935 361.748C280.801 362.12 280.647 362.485 280.483 362.857C275.906 373.04 267.433 415.231 267.433 415.231C268.641 422.815 212.261 413.741 212.115 406.835C210.129 399.505 219.16 387.743 224.253 381.841C226.513 379.208 227.915 375.948 228.27 372.496C229.271 362.706 228.89 353.531 228.975 347.951C229.971 347.19 230.934 346.485 231.828 345.807C233.074 344.922 234.237 343.925 235.303 342.83C236.24 341.931 236.83 340.73 236.969 339.439C237.017 338.491 236.994 337.54 236.898 336.596C236.857 336.145 236.799 335.692 236.734 335.242C236.226 332.14 235.35 329.11 234.125 326.216C238.973 324.19 247.596 325.396 247.596 325.396V326.701C247.568 329.956 247.596 338.312 248.605 339.894C249.868 341.864 272.966 350.493 274.188 347.818C275.388 345.191 272.114 332.875 271.976 332.408C271.976 332.404 271.976 332.399 271.976 332.395C279.705 335.533 282.475 338.168 282.475 338.168C277.789 341.299 284.539 351.868 280.935 361.748Z" fill="#2A4E96"/>
<path d="M273.609 315.781C273.609 315.781 272.222 320.16 271.2 324.356C263.578 322.159 261.263 313.88 260.566 309.443L273.609 315.781Z" fill="#ED985F"/>
<path d="M275.213 320.416C275.213 320.416 256.981 316.057 259.779 304.359C262.577 292.66 262.114 284.227 273.878 286.52C285.642 288.812 286.825 293.849 286.803 297.98C286.78 302.112 280.033 321.242 275.213 320.416Z" fill="#FFB27D"/>
<path d="M287.833 291.352C285.873 287.115 283.569 287.332 282.127 288.093C273.569 279.902 260.572 284.017 260.572 284.017C257.338 292.091 254.91 297.968 254.91 297.968C254.91 297.968 257.708 300.932 265.836 300.866C268.479 300.681 271.004 299.699 273.077 298.05C270.259 300.918 267.059 303.384 263.568 305.379C273.733 303.37 280.548 291.21 281.246 289.92C282.612 291.847 283.517 294.061 283.894 296.392C284.08 299.608 283.012 305.835 284.791 306.071C284.78 306.067 290.771 297.709 287.833 291.352Z" fill="#343434"/>
<path d="M282.451 338.173C282.451 338.173 286.848 346.087 287.498 348.123C287.498 348.123 281.806 347.898 279.503 352.41C279.513 352.422 278.956 339.24 282.451 338.173Z" fill="#2A4E96"/>
<path d="M252.252 401.059C241.134 400.939 231.716 389 225.961 379.47C227.232 377.345 228.02 374.966 228.269 372.503C229.27 362.713 228.889 353.538 228.974 347.958C229.969 347.197 230.933 346.492 231.827 345.814C233.073 344.929 234.236 343.932 235.302 342.836C244.409 358.76 267.323 401.224 252.252 401.059Z" fill="#1F437C"/>
<path d="M230.614 604.355H201.657C201.28 601.655 201.56 598.904 202.474 596.335C203.923 593.017 206.193 591.511 205.65 587.492C206.744 588.785 208.14 589.787 209.714 590.409C211.289 591.032 212.993 591.254 214.675 591.058C215.193 591.919 217.985 596.522 219.698 597.787C221.593 599.199 230.033 598.698 230.614 604.355Z" fill="#233862"/>
<path d="M292.792 604.363H263.832C263.832 604.363 262.75 599.59 264.652 596.342C266.335 593.469 265.69 591.832 264.444 589.455C265.975 590.141 267.643 590.467 269.319 590.406C270.858 590.225 272.333 589.688 273.627 588.838C276.204 591.979 278.958 594.97 281.878 597.795C283.771 599.201 292.221 598.699 292.792 604.363Z" fill="#233862"/>
<path d="M319.716 384.671L291.54 422.546L291.957 423.079L320.533 385.135L319.716 384.671Z" fill="#233862"/>
<path d="M320.481 385.202H349.074L319.139 423.073H291.957L320.481 385.202Z" fill="#2B478B"/>
<path d="M314.602 408.185C314.522 406.676 312.603 406.746 311.138 406.74C308.312 406.832 305.489 406.479 302.774 405.693C302.774 405.693 309.758 405.589 308.274 403.31C308.014 402.894 304.531 403.209 300.656 403.209C298.733 403.592 296.918 404.396 295.343 405.565C292.534 405.181 289.982 404.619 289.155 404.433C287.241 403.367 284.935 402.051 282.499 400.613C276.564 397.232 270.813 393.54 265.268 389.552C263.211 388.207 261.4 386.52 259.915 384.562C258.479 381.735 257.257 378.804 256.26 375.793C255.565 373.815 254.826 371.662 254.084 369.362C252.788 365.586 251.475 361.499 250.127 357.404C247.688 349.941 245.079 342.431 242.605 336.633C241.394 333.626 239.831 330.774 237.949 328.134C236.774 326.65 235.644 325.886 234.557 326.066C234.381 326.112 234.25 326.157 234.121 326.2C234.121 326.2 227.859 328 227.767 341.037C227.739 341.801 227.754 342.566 227.811 343.328C227.975 346.069 228.369 348.791 228.986 351.467C230.232 357.272 231.889 362.981 233.947 368.55C234.556 370.157 235.163 371.832 235.812 373.497C240.512 385.556 246.56 396.784 251.651 400.606C251.844 400.77 252.047 400.92 252.26 401.056C255.062 402.737 258.038 404.108 261.136 405.145C266.271 406.945 272.36 408.562 277.802 409.912H277.843C281.02 410.63 283.935 411.306 286.371 411.788C286.371 411.788 286.771 411.894 287.481 412.038L287.805 412.104C291.722 413.072 295.574 414.288 299.336 415.746C301.524 416.698 303.958 416.932 306.287 416.415C308.617 415.898 310.723 414.656 312.303 412.868C313.603 411.63 314.418 409.97 314.602 408.185Z" fill="#FFB27D"/>
<path d="M242.578 336.653C234.204 334.265 227.74 341.024 227.74 341.024C227.847 328.008 234.125 326.232 234.125 326.232C236.638 325.145 241.973 328.059 242.578 336.653Z" fill="#2A4E96"/>
<path d="M276.81 267.191C273.331 266.275 269.682 266.222 266.177 267.035C265.884 267.109 265.594 267.191 265.309 267.279C253.983 270.778 251.127 284.337 251.127 284.337C250.891 286.024 250.773 287.725 250.774 289.429C250.894 290.964 261.686 294.943 263.322 292.963C264.68 291.557 266.313 290.445 268.119 289.697C268.119 289.697 279.165 294.555 279.91 294.879C282.409 295.967 290.512 297.117 290.512 297.117C290.777 296.388 297.839 272.164 276.81 267.191Z" fill="#343434"/>
<path d="M297.99 298.11C295.925 296.382 293.693 294.864 291.328 293.579C287.59 294.195 283.771 294.128 280.057 293.383C279.045 288.224 275.37 275.136 266.179 267.037L266.099 266.965C265.737 267.137 265.566 267.169 265.321 267.281C265.232 267.32 265.145 267.365 265.061 267.415C272.841 273.434 276.053 287.586 277.007 292.752C273.961 292.008 270.988 290.99 268.126 289.711C268.126 289.711 276.339 298.764 297.404 299.74C297.59 299.733 297.77 299.671 297.921 299.561C298.071 299.451 298.185 299.298 298.249 299.123C298.312 298.948 298.321 298.757 298.275 298.577C298.229 298.396 298.13 298.233 297.99 298.11Z" fill="#606060"/>
<path d="M319.716 384.671H348.473L349.075 385.204H320.481L319.716 384.671Z" fill="#233862"/>
<path d="M536.472 563.249H484.691C484.187 563.206 483.718 562.976 483.377 562.604C483.035 562.231 482.845 561.744 482.845 561.239C482.845 560.734 483.035 560.247 483.377 559.874C483.718 559.502 484.187 559.272 484.691 559.229H536.472C536.975 559.272 537.444 559.502 537.786 559.874C538.128 560.247 538.317 560.734 538.317 561.239C538.317 561.744 538.128 562.231 537.786 562.604C537.444 562.976 536.975 563.206 536.472 563.249Z" fill="#474747"/>
<path d="M536.987 501.343H484.178C483.658 501.324 483.165 501.104 482.804 500.729C482.442 500.355 482.24 499.854 482.24 499.334C482.24 498.813 482.442 498.313 482.804 497.938C483.165 497.563 483.658 497.343 484.178 497.324H536.987C537.508 497.343 538 497.563 538.362 497.938C538.723 498.313 538.925 498.813 538.925 499.334C538.925 499.854 538.723 500.355 538.362 500.729C538 501.104 537.508 501.324 536.987 501.343Z" fill="#474747"/>
<path d="M569.697 409.118C572.831 409.865 586.985 410.043 596.93 407.734C598.828 407.323 600.681 406.726 602.462 405.953C604.083 405.341 605.479 404.251 606.466 402.827C607.589 400.892 609.645 394.271 612.062 385.588C618.725 361.671 628.088 322.154 628.088 322.154C628.088 322.154 609.276 326.12 605.296 329.507C601.316 332.895 597.798 386.614 594.056 388.067C593.503 388.282 592.551 388.733 591.332 389.353L591.153 389.441C590.424 389.811 589.597 390.241 588.72 390.711C580.955 394.836 568.102 402.266 566.768 403.918C565.008 406.094 565.129 408.029 569.697 409.118Z" fill="#2A4E96"/>
<path d="M605.784 352.736C605.791 351.813 605.878 350.893 606.044 349.986C608.464 336.233 627.714 322.151 628.089 322.151V322.437C628.089 324.539 631.297 328.418 636.236 328.752C642.099 329.151 649.329 325.694 649.329 322.207C649.365 322.207 652.623 322.663 653.738 322.788C658.435 323.34 667.808 325.961 671.824 329.097C675.641 332.077 670.247 350.871 666.894 364.176C665.477 369.804 664.435 374.454 664.606 376.503C664.69 377.508 665.565 391.163 666.338 403.522C666.987 413.705 667.568 423.017 667.586 423.605C667.628 424.763 662.058 428.817 652.701 431.881C650.265 432.677 647.789 433.341 645.281 433.869C639.975 434.993 634.564 435.548 629.141 435.526C627.307 435.524 625.475 435.428 623.651 435.239C610.29 433.889 605.713 418.156 605.784 352.736Z" fill="#2A4E96"/>
<path d="M649.323 322.05C649.506 316.338 649.283 310.621 648.657 304.941L628.022 308.424C628.022 308.424 627.998 314.937 628.09 322.151C628.077 322.151 627.531 328.85 635.512 329.826C643.494 330.801 649.539 327.214 649.323 322.05Z" fill="#FFB27D"/>
<path d="M649.219 309.107C649.436 303.405 649.247 297.695 648.654 292.019L628.02 295.503C628.02 295.503 627.956 301.958 628.048 309.177C628.034 309.177 627.528 315.934 635.51 316.907C643.491 317.88 649.434 314.274 649.219 309.107Z" fill="#ED985F"/>
<path d="M632.061 604.362C634.655 602.715 633.127 590.486 633.127 590.486C633.127 590.486 620.974 580.517 619.338 588.193C617.701 595.869 607.866 599.346 602.267 600.308C598.403 600.974 596.973 603.036 596.608 604.349L632.061 604.362Z" fill="#233862"/>
<path d="M650.964 394.12C650.964 414.567 660.557 409.058 666.343 403.534C665.565 391.18 665.01 347.415 665.01 347.415C665.01 347.415 650.964 364.832 650.964 394.12Z" fill="#1F437C"/>
<path d="M588.721 390.708C589.105 393.576 593.492 401.927 596.931 407.733C598.829 407.322 600.682 406.725 602.463 405.951C604.084 405.34 605.48 404.25 606.467 402.826C607.59 400.891 609.647 394.269 612.064 385.587C610.274 374.902 608.575 364.35 608.575 364.35L608.057 357.272C608.057 357.805 600.035 388.913 596.404 389.639C594.715 389.891 592.991 389.792 591.341 389.35L591.161 389.438C590.427 389.807 589.609 390.237 588.721 390.708Z" fill="#1F437C"/>
<path d="M669.302 604.362C671.897 602.715 670.368 590.486 670.368 590.486C670.368 590.486 658.215 580.517 656.576 588.193C654.937 595.869 645.106 599.346 639.505 600.308C635.64 600.974 634.235 603.036 633.87 604.349L669.302 604.362Z" fill="#233862"/>
<path d="M651.29 298.788C651.29 298.788 665.065 276.347 638.616 274.863C638.616 274.863 628.695 276.062 626.45 273.749C626.45 273.749 618.754 285.832 625.931 298.789C633.107 311.747 651.29 298.788 651.29 298.788Z" fill="#343434"/>
<path d="M628.634 310.498C630.633 312.128 636.516 313.746 638.217 313.936C638.217 313.936 646.934 311.927 648.518 310.941C650.972 309.403 650.814 306.291 650.941 301.966C651.092 296.845 651.591 292.826 651.037 289.873C650.38 286.344 648.212 284.334 642.145 283.786C631.011 282.789 626.371 285.663 626.177 289.526C626.128 290.563 626.081 291.549 626.044 292.487C625.604 304.517 626.531 308.784 628.634 310.498Z" fill="#FFB27D"/>
<path d="M667.591 423.612C667.633 424.77 662.062 428.824 652.708 431.89C651.952 432.137 651.172 432.375 650.373 432.606C650.368 432.607 650.364 432.611 650.36 432.615C650.357 432.619 650.355 432.624 650.355 432.63C649.48 443.21 647.118 458.156 644.989 472.579C644.436 476.33 643.903 480.021 643.409 483.601C642.18 491.666 641.386 499.79 641.03 507.94V508.006C640.986 510.858 643.315 517.975 643.489 519.621C643.598 520.625 643.686 521.689 643.755 522.804C643.986 527.916 643.921 533.037 643.558 538.141C642.031 562.662 635.759 594.039 633.522 595.374C629.074 598.033 620.982 595.374 616.866 594.749C616.023 594.626 615.255 594.199 614.706 593.548C614.157 592.896 613.866 592.067 613.888 591.215C615.897 550.517 610.125 493.838 605.812 458.995C605.698 458.089 605.587 457.196 605.477 456.315C604.959 452.207 604.622 448.37 604.411 444.91C604.214 441.877 604.121 439.121 604.077 436.734C604.077 435.989 604.062 435.279 604.056 434.602C604.056 432.421 605.726 418.142 605.801 352.722C605.793 352.005 606.068 351.314 606.567 350.799C607.067 350.284 607.749 349.987 608.466 349.973H647.183C648.078 349.976 648.962 350.161 649.783 350.516C650.604 350.872 651.344 351.39 651.959 352.04C653.225 353.379 653.918 355.16 653.89 357.003C653.774 363.227 654.163 369.45 655.052 375.612C656.481 384.697 659.541 393.18 665.856 395.223C665.862 395.222 665.867 395.222 665.872 395.223C665.9 395.29 666.075 395.687 666.352 396.349C666.413 397.993 666.479 399.666 666.552 401.368C666.565 401.708 666.58 402.055 666.596 402.397C666.596 402.601 666.615 402.797 666.624 403.002C666.639 403.347 666.656 403.696 666.673 404.044C666.7 404.617 666.725 405.194 666.759 405.777C666.782 406.232 666.806 406.691 666.83 407.152C666.878 408.045 666.93 408.938 666.987 409.832C667 410.124 667.018 410.41 667.038 410.704C667.111 411.875 667.191 413.059 667.277 414.254C667.304 414.622 667.329 414.988 667.357 415.357C667.357 415.534 667.383 415.71 667.397 415.89C667.433 416.359 667.466 416.823 667.506 417.298C667.546 417.772 667.586 418.297 667.627 418.801C667.767 420.685 667.545 422.32 667.591 423.612Z" fill="#42B2FC"/>
<path d="M643.551 538.142C642.024 562.663 635.752 594.04 633.514 595.376C629.066 598.034 620.974 595.376 616.858 594.752C616.016 594.629 615.248 594.201 614.699 593.55C614.151 592.899 613.86 592.069 613.881 591.218C615.89 550.518 610.117 493.84 605.805 458.997C605.691 458.09 605.579 457.197 605.471 456.317C604.952 452.208 604.615 448.37 604.405 444.91C606.457 431.096 618.034 430.356 628.522 458.934C627.224 468.424 643.907 532.522 643.551 538.142Z" fill="#2C9EDD"/>
<path d="M668.027 506.788C668.347 509.623 671.557 516.364 671.941 517.968C677.249 540.026 674.319 592.331 671.681 594.422C667.61 597.659 659.245 596.121 655.082 596.061C654.233 596.054 653.416 595.734 652.788 595.163C652.16 594.591 651.765 593.807 651.679 592.962C648.416 551.289 634.89 494.052 626.192 460.38C623.629 450.743 621.955 440.892 621.192 430.949C621.192 430.949 661.844 405.229 666.239 419.274C670.143 431.716 665.573 485.021 668.027 506.788Z" fill="#42B2FC"/>
<path d="M626.619 268.586C626.899 268.259 627.197 267.943 627.512 267.637C628.91 266.261 630.553 265.158 632.355 264.384C639.443 261.33 645.322 264.148 648.996 267.037C649.358 267.304 649.698 267.605 650.015 267.886C651.166 268.88 652.209 269.992 653.128 271.203C653.128 271.203 656.569 276.057 656.459 286.285L620.999 286.671C620.999 286.671 620.476 275.628 626.619 268.586Z" fill="#343434"/>
<path d="M646.499 286.402L644.552 286.426C644.513 285.843 644.609 272.545 649.407 267.384C649.619 267.544 649.821 267.715 650.012 267.898C645.462 272.432 646.499 286.254 646.499 286.402Z" fill="#606060"/>
<path d="M631.094 286.565C630.678 280.301 629.248 274.147 626.859 268.342C627.063 268.092 627.281 267.854 627.512 267.629C628.077 268.634 632.699 277.491 633.19 286.536L656.453 286.269C656.453 286.269 644.665 289 637.551 289.09C630.437 289.181 620.994 286.659 620.994 286.659L631.094 286.565Z" fill="#606060"/>
<path d="M655.118 322.984C655.118 322.984 643.137 337.404 642.436 349.989L648.538 350.321C649.949 340.794 653.562 331.728 659.092 323.843C659.092 323.843 657.681 323.493 657.212 323.396C656.584 323.268 655.118 322.984 655.118 322.984Z" fill="#42B2FC"/>
<path d="M625.248 322.785C620.032 331.101 616.782 340.497 615.745 350.259L609.585 350.15C610.092 340.259 616.105 329.379 619.425 324.226C619.425 324.226 623.676 323.117 625.248 322.785Z" fill="#42B2FC"/>
<path d="M664.707 400.399C664.406 415.165 666.186 444.569 666.186 444.569H674.618C678.599 423.881 680.005 410.57 680.005 403.299C680.005 401.871 679.999 400.538 679.986 399.301C679.934 393.1 679.77 389.501 679.77 389.501C681.353 351.935 674.09 331.847 671.811 329.081C669.533 326.314 659.104 323.829 659.104 323.829C657.09 329.962 655.468 336.216 654.249 342.555C652.844 350.903 665.301 385.968 664.791 397.971C664.749 398.735 664.728 399.542 664.707 400.399Z" fill="#2A4E96"/>
<path d="M666.184 444.568C666.184 444.568 664.406 415.164 664.705 400.398C669.609 398.67 674.889 398.301 679.985 399.332C679.995 400.562 680.001 401.894 680.003 403.33C680.003 410.59 678.598 423.901 674.616 444.6C676.372 452.224 676.255 460.45 673.21 461.903C670.166 463.356 660.098 457.905 660.215 455.49C660.332 453.075 666.184 444.568 666.184 444.568Z" fill="#FFB27D"/>
<path d="M550.829 410.569C551.651 407.455 552.262 405.729 554.336 404.218C557.353 402.02 560.932 402.61 563.598 403.097C565.319 403.313 567.068 403.075 568.668 402.405C573.39 399.152 585.248 392.445 591.155 389.437C595.183 391.849 600.133 396.633 602.462 405.95C593.385 410.091 573.485 410.017 569.698 409.115C569.698 409.115 566.191 411.747 563.522 411.991C562.335 412.014 561.155 411.801 560.05 411.366C559.108 411.055 558.092 411.054 557.15 411.364C556.208 411.673 555.39 412.276 554.816 413.084C554.441 413.623 553.934 414.059 553.344 414.348C552.754 414.637 552.1 414.771 551.443 414.738C550.344 414.739 550.312 412.531 550.829 410.569Z" fill="#ED985F"/>
<path d="M539.761 596.834H476.953C475.879 596.834 473.473 595.936 473.473 594.824C473.473 593.713 481.551 592.814 482.625 592.814H535.871V422.644C535.823 419.359 537.079 416.189 539.364 413.828C541.648 411.467 544.775 410.109 548.06 410.049H561.674C562.198 410.063 562.696 410.28 563.062 410.656C563.428 411.032 563.633 411.535 563.633 412.06C563.633 412.584 563.428 413.088 563.062 413.463C562.696 413.839 562.198 414.056 561.674 414.07H548.06C545.823 414.107 543.692 415.031 542.135 416.639C540.579 418.248 539.725 420.408 539.761 422.646V596.834Z" fill="#474747"/>
<path d="M485.296 596.834H439.735C439.215 596.815 438.722 596.595 438.361 596.22C437.999 595.845 437.797 595.345 437.797 594.824C437.797 594.303 437.999 593.803 438.361 593.428C438.722 593.053 439.215 592.833 439.735 592.814H481.401V422.644C481.354 419.359 482.61 416.189 484.894 413.828C487.179 411.468 490.306 410.109 493.59 410.049H507.204C507.728 410.063 508.227 410.28 508.592 410.656C508.958 411.032 509.163 411.535 509.163 412.06C509.163 412.584 508.958 413.088 508.592 413.463C508.227 413.839 507.728 414.056 507.204 414.07H493.59C491.353 414.107 489.222 415.031 487.665 416.639C486.109 418.247 485.254 420.408 485.29 422.646L485.296 596.834Z" fill="#474747"/>
<path d="M536.562 439.706H484.596C484.094 439.662 483.627 439.43 483.287 439.058C482.947 438.686 482.758 438.201 482.758 437.697C482.758 437.193 482.947 436.707 483.287 436.335C483.627 435.963 484.094 435.732 484.596 435.687H536.562C537.064 435.732 537.531 435.963 537.872 436.335C538.212 436.707 538.4 437.193 538.4 437.697C538.4 438.201 538.212 438.686 537.872 439.058C537.531 439.43 537.064 439.662 536.562 439.706Z" fill="#474747"/>
<path d="M564.873 415.409H548.061C547.193 415.379 546.37 415.013 545.767 414.388C545.163 413.763 544.826 412.928 544.826 412.06C544.826 411.191 545.163 410.356 545.767 409.731C546.37 409.106 547.193 408.74 548.061 408.71H564.873C565.741 408.74 566.564 409.106 567.167 409.731C567.771 410.356 568.108 411.191 568.108 412.06C568.108 412.928 567.771 413.763 567.167 414.388C566.564 415.013 565.741 415.379 564.873 415.409Z" fill="#343434"/>
<path d="M548.061 410.049C545.093 410.093 542.239 411.205 540.023 413.183C537.808 415.16 536.379 417.869 535.999 420.814H539.951C540.327 418.932 541.337 417.235 542.813 416.007C544.289 414.78 546.142 414.096 548.061 414.07C548.582 414.051 549.074 413.831 549.436 413.456C549.797 413.081 549.999 412.581 549.999 412.06C549.999 411.54 549.797 411.039 549.436 410.664C549.074 410.29 548.582 410.068 548.061 410.049Z" fill="#474747"/>
<path d="M510.409 415.409H493.598C492.73 415.379 491.907 415.013 491.304 414.388C490.7 413.763 490.363 412.928 490.363 412.06C490.363 411.191 490.7 410.356 491.304 409.731C491.907 409.106 492.73 408.74 493.598 408.71H510.409C511.277 408.74 512.099 409.106 512.703 409.731C513.307 410.356 513.644 411.191 513.644 412.06C513.644 412.928 513.307 413.763 512.703 414.388C512.099 415.013 511.277 415.379 510.409 415.409Z" fill="#343434"/>
<path d="M493.599 410.049C490.63 410.093 487.776 411.206 485.561 413.183C483.345 415.16 481.916 417.869 481.536 420.814H485.488C485.864 418.932 486.874 417.235 488.35 416.007C489.826 414.78 491.679 414.096 493.599 414.07C494.119 414.051 494.611 413.831 494.973 413.456C495.334 413.081 495.536 412.581 495.536 412.06C495.536 411.54 495.334 411.039 494.973 410.664C494.611 410.29 494.119 410.068 493.599 410.049Z" fill="#474747"/>
<path d="M525.278 499.585H474.482V542.865H525.278V499.585Z" fill="#B9956F"/>
<path d="M499.88 499.585H449.083V542.865H499.88V499.585Z" fill="#DABEA0"/>
<path d="M525.248 531.886H517.202L517.909 529.548L517.202 527.879H525.248V531.886Z" fill="#DABEA0"/>
<path d="M499.881 512.98H491.83L492.542 510.64L491.83 508.967H499.881V512.98Z" fill="#C2A280"/>
<path d="M499.88 508.967H507.93L507.219 511.307L507.93 512.98H499.88V508.967Z" fill="#DABEA0"/>
<path d="M449.083 532.356H457.13L456.423 534.696L457.13 536.368H449.083V532.356Z" fill="#C2A280"/>
<path d="M452.409 508.397H467.028V502.521H452.409V508.397Z" fill="white"/>
<path d="M443.201 592.826H501.836V542.865H443.201V592.826Z" fill="#D8702A"/>
<path d="M472.526 592.826H531.161V542.865H472.526V592.826Z" fill="#FF9E55"/>
<path d="M443.237 580.157H452.528L451.704 577.455L452.528 575.524H443.237V580.157Z" fill="#C15E1B"/>
<path d="M472.519 558.328H481.81L480.993 555.626L481.81 553.695H472.519V558.328Z" fill="#FFB27D"/>
<path d="M472.518 553.695H463.226L464.043 556.397L463.226 558.328H472.518V553.695Z" fill="#C15E1B"/>
<path d="M531.161 580.691H521.868L522.686 583.392L521.868 585.324H531.161V580.691Z" fill="#C2A280"/>
<path d="M527.32 546.255H510.443V553.037H527.32V546.255Z" fill="white"/>
<path d="M544.125 561.372H536.345C527.107 561.372 519.616 570.851 519.616 582.542C519.616 594.234 527.106 603.713 536.345 603.713H544.125C553.363 603.713 560.853 594.235 560.853 582.542C560.853 570.85 553.367 561.372 544.125 561.372Z" fill="#343434"/>
<path d="M544.124 603.713C553.362 603.713 560.852 594.234 560.852 582.542C560.852 570.85 553.362 561.372 544.124 561.372C534.886 561.372 527.396 570.85 527.396 582.542C527.396 594.234 534.886 603.713 544.124 603.713Z" fill="#474747"/>
<path d="M554.712 582.541C554.712 589.94 549.974 595.941 544.125 595.941C538.277 595.941 533.538 589.944 533.538 582.541C533.538 575.138 538.276 569.142 544.125 569.142C549.975 569.142 554.712 575.139 554.712 582.541Z" fill="#343434"/>
<path d="M569.701 409.116C569.701 409.116 563.39 413.554 561.721 412.461C560.051 411.369 562.888 408.89 560.208 407.997C557.529 407.104 569.701 409.116 569.701 409.116Z" fill="#D9935C"/>
<path d="M431.664 529.368H344.478V603.65H431.664V529.368Z" fill="#D8702A"/>
<path d="M388.071 529.368H300.885V603.65H388.071V529.368Z" fill="#FF9E55"/>
<path d="M431.61 584.806H417.799L419.014 580.79L417.799 577.925H431.61V584.806Z" fill="#C15E1B"/>
<path d="M388.071 552.357H374.254L375.474 548.342L374.254 545.472H388.071V552.357Z" fill="#FFB27D"/>
<path d="M388.071 545.47H401.889L400.668 549.486L401.889 552.356H388.071V545.47Z" fill="#C15E1B"/>
<path d="M300.885 585.613H314.698L313.483 589.629L314.698 592.5H300.885V585.613Z" fill="#FFB27D"/>
<path d="M306.592 544.492H331.684V534.408H306.592V544.492Z" fill="white"/>
<path d="M344.478 530.138H396.706V485.636H344.478V530.138Z" fill="#B9956F"/>
<path d="M370.597 530.138H422.824V485.636H370.597V530.138Z" fill="#DABEA0"/>
<path d="M344.51 518.853H352.786L352.053 516.446L352.786 514.726H344.51V518.853Z" fill="#DABEA0"/>
<path d="M370.592 499.409H378.868L378.14 497.004L378.868 495.284H370.592V499.409Z" fill="#C2A280"/>
<path d="M370.592 495.284H362.316L363.043 497.689L362.316 499.409H370.592V495.284Z" fill="#DABEA0"/>
<path d="M422.823 519.329H414.547L415.275 521.734L414.547 523.455H422.823V519.329Z" fill="#C2A280"/>
<path d="M419.405 488.656H404.373V494.697H419.405V488.656Z" fill="white"/>
<path d="M71.0784 446.849H88.3431L86.8241 451.872L88.3431 455.458H71.0784V446.849Z" fill="#E3F0FF"/>
<path d="M109.583 382.836H78.219V395.441H109.583V382.836Z" fill="white"/>
<path d="M139.471 336.452H72.3242V393.66H139.471V336.452Z" fill="#D8702A"/>
<path d="M173.037 336.452H105.89V393.66H173.037V336.452Z" fill="#FF9E55"/>
<path d="M72.3628 379.154H83.0038L82.0617 376.061L83.0038 373.847H72.3628V379.154Z" fill="#C15E1B"/>
<path d="M105.897 354.157H116.531L115.599 351.066L116.531 348.852H105.897V354.157Z" fill="#FFB27D"/>
<path d="M105.902 348.852H95.2598L96.1926 351.945L95.2598 354.157H105.902V348.852Z" fill="#C15E1B"/>
<path d="M173.049 379.767H162.407L163.339 382.86L162.407 385.074H173.049V379.767Z" fill="#FFB27D"/>
<path d="M168.639 340.328H149.315V348.098H168.639V340.328Z" fill="white"/>
<path d="M141.363 391.227C142.997 390.135 146.681 387.734 146.855 388.308C146.906 388.958 146.707 389.603 146.3 390.113C148.504 389.328 150.736 388.896 155.924 390.113C156.446 390.235 156.937 390.463 157.368 390.781C157.799 391.099 158.16 391.502 158.431 391.965C158.597 392.185 158.711 392.44 158.766 392.711C158.82 392.981 158.812 393.261 158.744 393.528C158.678 393.793 158.551 394.039 158.374 394.247C158.198 394.455 157.975 394.62 157.724 394.728C154.99 396.297 155.802 395.341 152.004 397.686C148.207 400.032 143.648 400.485 140.998 398.628L137.383 397.843L137.162 391.642C137.162 391.642 139.243 391.494 141.363 391.227Z" fill="#FFB27D"/>
<path d="M47.2512 327.378C47.2512 327.378 57.5591 336.081 67.5166 329.678C68.2155 326.226 68.3921 322.689 68.0404 319.184C67.9484 318.667 67.8657 318.156 67.7818 317.669C66.9823 312.872 66.6425 310.142 66.6425 310.142C66.1175 310.025 48.9595 306.352 49.0728 306.909C51.6871 319.828 47.2512 327.378 47.2512 327.378Z" fill="#FFB27D"/>
<path d="M51.2099 309.694C55.5194 314.36 61.4423 317.211 67.7765 317.669C66.977 312.871 66.6371 310.142 66.6371 310.142C66.1641 310.104 50.5996 308.917 51.2099 309.694Z" fill="#ED975D"/>
<path d="M69.8858 308.997C69.8858 308.997 52.7569 316.847 48.2066 305.724C43.6562 294.602 38.3784 288.168 49.1194 282.697C59.8604 277.227 63.7404 280.53 66.1335 283.851C68.5266 287.172 74.2229 306.675 69.8858 308.997Z" fill="#FFB27D"/>
<path d="M49.3951 308.762C49.1752 308.964 45.5442 310.943 35.5174 297.326C34.3606 295.553 33.6298 293.537 33.3819 291.435C33.1341 289.332 33.3761 287.201 34.089 285.208C35.9425 280.177 44.7688 274.793 52.3652 271.724C59.9615 268.655 62.6731 272.87 65.362 277.108C68.1869 281.558 74.5292 284.446 74.5292 284.446C68.4532 289.681 59.2539 285.663 56.5956 287.13C53.9374 288.597 53.7629 293.409 53.8149 294.923C53.8669 296.437 53.7695 297.741 49.972 297.105C46.1745 296.469 49.3058 302.599 50.1052 303.776C50.0759 303.775 51.1859 307.011 49.3951 308.762Z" fill="#343434"/>
<path d="M23.1723 604.361H12.0968C9.81831 604.361 7.21198 602.006 6.56707 597.58C5.92215 593.154 1.16659 590.806 0.133931 587.22C-0.898728 583.634 4.37921 578.587 4.37921 578.587L5.25998 577.417L6.17946 576.193L14.9296 578.326C14.9296 578.326 15.1429 580.475 15.2788 583.215C15.3814 585.306 15.3814 587.402 15.2788 589.493C15.0283 594.282 16.5779 599.438 20.6952 600.364C24.8125 601.29 23.1723 604.361 23.1723 604.361Z" fill="#2C3A64"/>
<path d="M100.034 604.365H70.7678C70.5526 604.331 70.3432 604.268 70.1456 604.177C68.1935 603.164 68.8131 595.441 69.037 593.048C69.0823 592.608 69.1209 592.348 69.1209 592.348C69.1209 592.348 79.4062 583.848 80.8266 590.349C80.8719 590.553 80.9252 590.749 80.9798 590.946C82.764 597.036 90.7468 599.807 95.3585 600.577C98.8788 601.184 99.7981 603.298 100.034 604.365Z" fill="#2C3A64"/>
<path d="M94.1311 430.014C94.1311 430.014 92.5668 450.157 90.736 474.367C88.2363 507.264 85.2356 547.67 84.9411 555.321C84.4241 568.616 82.3668 589.851 82.3668 589.851C82.3668 589.851 77.482 594.904 67.6991 592.769C62.1254 572.323 58.3797 551.422 56.5064 530.313C56.4624 529.779 56.4237 529.246 56.385 528.743C54.1065 496.05 50.9407 422.967 50.9407 422.967L94.1311 430.014Z" fill="#42B2FC"/>
<path d="M88.3124 428.648C88.3124 428.648 89.3225 441.205 83.6955 464.807C79.5649 482.073 56.5012 530.326 56.5012 530.326C56.4559 529.801 56.4187 529.267 56.38 528.756C54.1015 496.059 50.4705 427.207 50.4705 427.207L88.3124 428.648Z" fill="#2C9EDD"/>
<path d="M88.3137 428.644C88.3137 428.644 58.8262 505.34 40.3089 539.629C21.7917 573.919 16.0022 583.487 16.0022 583.487C16.0022 583.487 5.36783 579.1 4.42578 576.11C4.42578 576.11 11.5117 509.915 23.917 493.778C30.9204 484.657 39.1551 457.297 39.5415 447.73C39.9279 438.163 42.0479 419.211 42.0479 419.211L88.3137 428.644Z" fill="#42B2FC"/>
<path d="M89.794 427.2C85.6634 427.459 42.1372 425.756 42.1292 423.276C42.1292 414.54 40.321 400.398 38.1118 383.248C37.7058 380.05 37.3891 376.879 37.1617 373.736C36.5447 366.028 36.527 358.285 37.1085 350.575C38.2091 337.366 43.6376 326.707 49.178 321.739C49.9375 321.111 52.589 323.214 57.0847 325.099C61.2474 326.842 64.5359 325.593 68.2775 324.518L73.0558 328.858C77.4331 333.107 80.9347 338.174 83.3623 343.771C83.3597 343.72 90.1578 427.171 89.794 427.2Z" fill="#2A4E96"/>
<path d="M83.3609 343.719L71.4726 346.576L55.1113 392.357C54.0182 395.526 51.9714 398.279 49.2516 400.238C46.5319 402.197 43.2726 403.266 39.9211 403.298L41.3562 425.901L94.1405 429.991L83.3609 343.719Z" fill="#42B2FC"/>
<path d="M140.368 394.697C140.746 391.117 138.969 390.45 138.969 390.45C138.969 390.45 103.925 382.436 100.993 381.338C98.0621 380.24 73.4114 351.648 73.4114 351.648C73.4114 351.648 64.0149 339.797 55.8656 342.002C48.7862 343.925 45.8387 349.45 44.7075 354.788C44.0506 357.877 44.3177 361.092 45.4752 364.03C46.6327 366.969 48.6294 369.502 51.2166 371.313C62.9676 379.429 86.5136 395.423 92.1233 397.369C104.618 401.701 138.709 399.544 138.709 399.544C139.62 398.072 140.188 396.415 140.372 394.694L140.368 394.697Z" fill="#2A4E96"/>
<path d="M59.1527 333.312C56.3799 330.66 47.5083 323.361 47.5083 323.361L49.1792 321.68C50.3638 321.422 59.5325 328.556 62.5932 331.365C66.2708 334.749 76.4788 345.807 76.4788 345.807L71.4739 346.592C71.4739 346.592 62.4106 336.445 59.1527 333.312Z" fill="#42B2FC"/>
<path d="M131.696 299.849C140.159 299.849 147.019 292.987 147.019 284.523C147.019 276.059 140.159 269.198 131.696 269.198C123.233 269.198 116.373 276.059 116.373 284.523C116.373 292.987 123.233 299.849 131.696 299.849Z" fill="#5ACE75"/>
<path d="M124.713 285.223L129.322 289.817L138.679 279.851" stroke="#F3F9FF" stroke-width="3" stroke-linecap="round" stroke-linejoin="round"/>
<defs>
<linearGradient id="paint0_linear_2453_8726" x1="357.549" y1="179.792" x2="357.549" y2="661" gradientUnits="userSpaceOnUse">
<stop stop-color="white"/>
<stop offset="1" stop-color="#F3F9FF"/>
</linearGradient>
</defs>
</svg>
